<svg id="icon" xmlns="http://www.w3.org/2000/svg" viewBox="0 0 512 512"><defs><style>.cls-1{fill:#b39edd;}.cls-2{fill:#e6e6e6;}.cls-3{fill:#f7899e;}.cls-4{fill:#ffca5f;}.cls-5{fill:#376782;}</style></defs><title>analytics</title><path class="cls-1" d="M382.81,305.06h33.39a11.05,11.05,0,0,1,11.05,11.05V466.22A27.75,27.75,0,0,1,399.5,494h0a27.75,27.75,0,0,1-27.75-27.75V316.11a11.05,11.05,0,0,1,11.05-11.05Z" transform="translate(-165.48 399.5) rotate(-45)"/><rect class="cls-2" x="300.01" y="288.23" width="28.54" height="52.13" transform="translate(-130.19 314.28) rotate(-45)"/><path class="cls-2" d="M192.82,37.59A155.24,155.24,0,1,0,348.06,192.83,155.25,155.25,0,0,0,192.82,37.59Zm0,270.46A115.22,115.22,0,1,1,308.05,192.83,115.22,115.22,0,0,1,192.82,308.05Z"/><path class="cls-2" d="M192.82,37.59A155.24,155.24,0,1,0,348.06,192.83,155.25,155.25,0,0,0,192.82,37.59Zm0,270.46A115.22,115.22,0,1,1,308.05,192.83,115.22,115.22,0,0,1,192.82,308.05Z"/><circle class="cls-3" cx="172.67" cy="173.02" r="30.99"/><circle class="cls-4" cx="180.61" cy="411.85" r="22.65"/><circle class="cls-4" cx="437.87" cy="194.42" r="22.65"/><path class="cls-5" d="M437.93,78.64h-.07a5.46,5.46,0,0,0-5.46,5.41l-.92,83a28.15,28.15,0,0,0-21.15,21.67l-29.72-.19a5.47,5.47,0,1,0-.07,10.94l29.72.19a28.11,28.11,0,1,0,32.16-33l.91-82.54A5.46,5.46,0,0,0,437.93,78.64Zm17.12,115.78a17.18,17.18,0,1,1-17.18-17.18A17.21,17.21,0,0,1,455.05,194.42Z"/><path class="cls-5" d="M364,317.05a16.52,16.52,0,0,0-21-1.95l-12.83-12.84a5.47,5.47,0,0,0-7.74,7.74l12.64,12.63-12.45,12.45L300,312.47a160.36,160.36,0,0,0,53.52-119.64c0-88.61-72.09-160.71-160.71-160.71S32.11,104.22,32.11,192.83a160.56,160.56,0,0,0,109.57,152.4,5.47,5.47,0,0,0,3.48-10.37,149.64,149.64,0,0,1-102.11-142c0-82.58,67.19-149.77,149.77-149.77S342.6,110.25,342.6,192.83,275.41,342.6,192.82,342.6c-4,0-8-.15-11.92-.46a5.45,5.45,0,0,0-5.88,5,5.59,5.59,0,0,0,.11,1.48l-.36,35.71a28.2,28.2,0,0,0-21.7,21.79l-84.38-.79h-.06a5.47,5.47,0,0,0,0,10.94l84.41.79a28.11,28.11,0,1,0,32.71-32.87l.31-30.82q3.4.15,6.8.15a159.92,159.92,0,0,0,98.78-34L315.1,343A16.54,16.54,0,0,0,317,364L423.18,470.16a33.22,33.22,0,1,0,47-47Zm-166.23,94.8a17.18,17.18,0,1,1-17.18-17.18A17.2,17.2,0,0,1,197.79,411.85Zm264.63,50.58a22.29,22.29,0,0,1-31.5,0L324.78,356.29a5.59,5.59,0,0,1,0-7.9l23.6-23.6a5.58,5.58,0,0,1,7.9,0L462.42,430.93a22.26,22.26,0,0,1,0,31.5Z"/><path class="cls-5" d="M95.45,131A5.47,5.47,0,0,0,88,133a120.6,120.6,0,1,0,55-50.12,5.47,5.47,0,0,0,4.52,10,109.74,109.74,0,1,1-50,45.59A5.46,5.46,0,0,0,95.45,131Z"/><path class="cls-5" d="M118.89,111.72l1.69-1.51a5.47,5.47,0,0,0-7.2-8.24c-.62.55-1.25,1.11-1.86,1.67a5.47,5.47,0,1,0,7.37,8.08Z"/><path class="cls-5" d="M172.67,147.5A25.53,25.53,0,0,1,192,156.33a5.47,5.47,0,1,0,8.27-7.16,36.46,36.46,0,1,0-32.51,60L167.2,272a5.47,5.47,0,0,0,5.41,5.53h.06a5.47,5.47,0,0,0,5.47-5.41l.54-63.09a36.55,36.55,0,0,0,30-30.12l70.12.66h.06a5.47,5.47,0,0,0,.06-10.94l-73.43-.7a5.42,5.42,0,0,0-7.28,5.14,25.52,25.52,0,1,1-25.52-25.52Z"/></svg>